# xmcd
#
# Track frame offsets: 
#        150
#        12657
#        28722
#        42054
#        54153
#        67837
#        80906
#        95082
#        109706
#        121574
#        133073
#        145595
#        161126
#        174976
#        189212
#        204919
#        217930
#        232916
#        247478
#        262363
#
# Disc length: 3651 seconds
#
# Revision: 3
# Processed by: cddbd v1.5.2PL0 Copyright (c) Steve Scherf et al.
# Submitted via: ExactAudioCopy v1.1
#
DISCID=150e4114
DTITLE=Benny Goodman - CD3_True Confession
DYEAR=2002
DGENRE=Swing
TTITLE0=Suggar Foot Stomp
TTITLE1=I Can't Give You Anything But Love, Baby
TTITLE2=Minnie The Moocher's Wedding Day
TTITLE3=Let That Be A Lesson To You
TTITLE4=Can't Teach My Old Heart New Tricks
TTITLE5=I've Hitched My Wagon To A Star
TTITLE6=Pop-Corn Man
TTITLE7=You Took The Words Right Out Of My Heart
TTITLE8=Mama Yhe Moon Is Here Again
TTITLE9=Loch Lomond
TTITLE10=Camel Hop
TTITLE11=True Confession
TTITLE12=Life Goes To A Party
TTITLE13=If Dream Come True
TTITLE14=I'm Like A Fish Out Of Water
TTITLE15=Sweet Stranger
TTITLE16=Don't Be That Way
TTITLE17=One O'clock Jump
TTITLE18=Please Be Kind
TTITLE19=Ti-Pi-Tin
EXTD=YEAR: 2002
EXTT0=
EXTT1=
EXTT2=
EXTT3=
EXTT4=
EXTT5=
EXTT6=
EXTT7=
EXTT8=
EXTT9=
EXTT10=
EXTT11=
EXTT12=
EXTT13=
EXTT14=
EXTT15=
EXTT16=
EXTT17=
EXTT18=
EXTT19=
PLAYORDER=
